<svg width="30" height="21" viewBox="0 0 30 21" fill="none" xmlns="http://www.w3.org/2000/svg">
<path d="M24.5266 14.9542C23.7935 14.9542 23.0971 15.2413 22.5718 15.7605C22.0464 16.2859 21.7532 16.9701 21.7532 17.7031C21.7532 18.4362 22.0403 19.1203 22.5718 19.6457C23.1032 20.1649 23.7935 20.452 24.5266 20.452C26.0293 20.452 27.2511 19.2181 27.2511 17.7031C27.2511 16.1881 26.0293 14.9542 24.5266 14.9542ZM24.5266 19.2303C23.6836 19.2303 22.975 18.5339 22.975 17.7031C22.975 16.8723 23.6836 16.1759 24.5266 16.1759C25.3574 16.1759 26.0293 16.8601 26.0293 17.7031C26.0293 18.5461 25.3574 19.2303 24.5266 19.2303ZM25.2352 5.79719C25.1252 5.69334 24.9786 5.63836 24.8259 5.63836H21.6921C21.3561 5.63836 21.0812 5.91326 21.0812 6.24924V11.2584C21.0812 11.5944 21.3561 11.8693 21.6921 11.8693H26.6646C27.0006 11.8693 27.2755 11.5944 27.2755 11.2584V7.9047C27.2755 7.73366 27.2022 7.56872 27.0739 7.45266L25.2352 5.79719ZM26.0538 10.6475H22.303V6.854H24.5877L26.0538 8.17349V10.6475ZM9.60904 14.9542C8.87599 14.9542 8.1796 15.2413 7.65425 15.7605C7.12889 16.2859 6.83568 16.9701 6.83568 17.7031C6.83568 18.4362 7.12279 19.1203 7.65425 19.6457C8.18571 20.1649 8.87599 20.452 9.60904 20.452C11.1118 20.452 12.3335 19.2181 12.3335 17.7031C12.3335 16.1881 11.1118 14.9542 9.60904 14.9542ZM9.60904 19.2303C8.76604 19.2303 8.05742 18.5339 8.05742 17.7031C8.05742 16.8723 8.76604 16.1759 9.60904 16.1759C10.4398 16.1759 11.1118 16.8601 11.1118 17.7031C11.1118 18.5461 10.4398 19.2303 9.60904 19.2303ZM5.53451 15.7056H4.30666V14.0806C4.30666 13.7447 4.03177 13.4698 3.69579 13.4698C3.3598 13.4698 3.08491 13.7447 3.08491 14.0806V16.3164C3.08491 16.6524 3.3598 16.9273 3.69579 16.9273H5.53451C5.87049 16.9273 6.14539 16.6524 6.14539 16.3164C6.14539 15.9805 5.87049 15.7056 5.53451 15.7056ZM8.63164 12.3763C8.63164 12.0403 8.35675 11.7654 8.02077 11.7654H0.610874C0.274893 11.7654 0 12.0403 0 12.3763C0 12.7123 0.274893 12.9872 0.610874 12.9872H8.02077C8.35675 12.9872 8.63164 12.7184 8.63164 12.3763ZM1.85095 10.171L9.26084 10.2138C9.59682 10.2138 9.87172 9.94502 9.87782 9.60904C9.88393 9.26695 9.60904 8.99206 9.27306 8.99206L1.86316 8.9493C1.85706 8.9493 1.85706 8.9493 1.85706 8.9493C1.52108 8.9493 1.24618 9.21808 1.24618 9.55406C1.24007 9.89615 1.51497 10.171 1.85095 10.171ZM3.09713 7.39768H10.507C10.843 7.39768 11.1179 7.12278 11.1179 6.7868C11.1179 6.45082 10.843 6.17593 10.507 6.17593H3.09713C2.76115 6.17593 2.48626 6.45082 2.48626 6.7868C2.48626 7.12278 2.76115 7.39768 3.09713 7.39768ZM29.774 6.573L25.4001 2.95052C25.2902 2.85889 25.1558 2.81002 25.0092 2.81002H19.8656V0.610874C19.8656 0.274893 19.5907 0 19.2547 0H3.69579C3.3598 0 3.08491 0.274893 3.08491 0.610874V5.08247C3.08491 5.41845 3.3598 5.69334 3.69579 5.69334C4.03177 5.69334 4.30666 5.41845 4.30666 5.08247V1.22175H18.65V15.7056H13.6408C13.3048 15.7056 13.0299 15.9805 13.0299 16.3164C13.0299 16.6524 13.3048 16.9273 13.6408 16.9273H21.0996C21.4356 16.9273 21.7104 16.6524 21.7104 16.3164C21.7104 15.9805 21.4356 15.7056 21.0996 15.7056H19.8717V4.03177H24.7954L28.7783 7.33048L28.7355 15.6933H28.1002C27.7642 15.6933 27.4893 15.9682 27.4893 16.3042C27.4893 16.6402 27.7642 16.9151 28.1002 16.9151H29.3403C29.6762 16.9151 29.9511 16.6463 29.9511 16.3103L30 7.04948C29.9939 6.86622 29.9145 6.68906 29.774 6.573Z" fill="black"/>
</svg>
